<?xml version="1.0" encoding="UTF-8"?>
<svg id="Layer_1" xmlns="http://www.w3.org/2000/svg" version="1.1" viewBox="0 0 800 800">
  <!-- Generator: Adobe Illustrator 29.4.0, SVG Export Plug-In . SVG Version: 2.1.0 Build 152)  -->
  <defs>
    <style>
      .st0 {
        fill: #fff;
      }
    </style>
  </defs>
  <path class="st0" d="M510.85,377.437s-38.97-22.172-57.476-32.701l61.668-61.881s4.032-4.046,4.032-4.046c-.06-.899-.092-7.333-.243-7.994-3.016-31.048-22.176-59.7-54.409-65.109-16.316-2.974-33.823-.004-49.01,4.735,0,0-6.733,1.596-6.734,1.596v98.984c-2.033,2.033-3.504,3.504-5.511,5.511-1.467.02-2.962.041-2.962.041,0,0,0,.016,0,.022-.067.001-1.744.028-3.485.057-2.021-2.021-3.4-3.4-5.393-5.393.008-14.651-.041-66.014-.006-67.867-2.619-.408-8.64-1.457-11.19-1.864-39.406-5.744-79.408,8.301-96.34,46.748,0,.002-4.132,11.855-4.133,11.856l9.491,5.4s38.97,22.172,57.476,32.701c-12.219,12.261-61.668,61.881-61.668,61.881,0,0-4.032,4.046-4.032,4.046.059.899.092,7.333.243,7.994,3.016,31.048,22.176,59.7,54.409,65.11,16.316,2.974,33.823.004,49.01-4.735,0,0,6.733-1.596,6.734-1.596v-98.984l5.51-5.511,2.962-.041s0-.016,0-.022c.067-.001,1.744-.028,3.485-.057l5.393,5.393c-.008,14.651.041,66.014.006,67.867,2.619.408,8.64,1.457,11.19,1.864,39.406,5.744,79.408-8.301,96.34-46.747,0-.002,4.132-11.855,4.133-11.856l-9.491-5.4ZM442.244,423.344c-5.211.596-10.518.809-15.789.569v-59.56c-3.529-3.528-12.407-12.408-15.933-15.933-2.476.035-8.504.147-11.089.181v.022c-2.438.034-7.746.107-10.066.14-3.471,3.471-12.352,12.352-15.822,15.822v92.201c-6.872,1.362-13.747,2.158-20.437,2.041-28.31.051-44.256-18.588-46.899-45.206l61.627-71.553,6.562-7.619c-1.608-1.068-48.523-32.352-66.073-44.051,9.794-18.357,28.414-28.53,49.432-30.774,5.211-.596,10.518-.809,15.789-.569v59.56c3.529,3.528,12.407,12.408,15.933,15.933,2.476-.035,8.504-.147,11.089-.181v-.022c2.438-.034,7.746-.107,10.066-.14,3.471-3.471,12.352-12.352,15.822-15.822v-92.201c6.872-1.362,13.747-2.158,20.437-2.041,28.31-.051,44.256,18.588,46.899,45.206l-61.627,71.553-6.562,7.619c1.608,1.068,48.523,32.352,66.073,44.051-9.794,18.357-28.414,28.53-49.432,30.774Z"/>
  <g>
    <path class="st0" d="M181.26,586.825h5.346v2.949h-5.346v5.326h-3.152v-14.252h9.758v2.928h-6.606v3.049Z"/>
    <path class="st0" d="M197.057,589.733h-1.016v5.367h-3.131l-.021-14.252h6.75c2.826,0,4.309,1.707,4.309,4.309,0,2.115-1.645,3.783-3.475,4.312l3.781,4.92v.711h-3.029l-4.168-5.367ZM199.152,583.776h-3.111v2.908c1.057,0,2.946.021,2.946.021,1.363,0,1.892-.755,1.892-1.507,0-.731-.367-1.422-1.727-1.422Z"/>
    <path class="st0" d="M215.66,595.487c-3.516,0-7.117-2.523-7.117-7.502,0-5.146,3.601-7.543,7.117-7.543,3.537,0,7.117,2.662,7.117,7.602,0,4.982-3.598,7.443-7.117,7.443ZM215.66,583.532c-2.705,0-4.106,1.992-4.106,4.512,0,2.379,1.401,4.353,4.106,4.353s4.106-1.912,4.106-4.353c0-2.479-1.422-4.512-4.106-4.512Z"/>
    <path class="st0" d="M240.24,587.577l-4.353,7.299h-1.281l-3.701-7.197-.649,7.42h-3.008l1.016-14.252,2.5-.021,4.758,9.109,5.367-9.109,2.012.021,1.037,14.252h-2.987l-.711-7.523Z"/>
    <path class="st0" d="M265.916,595.099h-3.211v-11.324h-4.617v-2.928h12.425v2.928h-4.597v11.324Z"/>
    <path class="st0" d="M283.34,589.712h-5.023v5.387h-3.19v-14.252h3.211v5.795h5.002v-5.795h3.193v14.252h-3.193v-5.387Z"/>
    <path class="st0" d="M292.043,580.847h9.981v2.928h-6.812c0,.934-.018,1.871-.018,2.826h5.772v2.846h-5.754v2.705h7.035v2.946h-10.225l.021-14.252Z"/>
    <path class="st0" d="M323.476,595.284c-3.539,0-6.688-2.502-6.688-7.361,0-4.535,3.414-7.34,6.627-7.34,2.561,0,4.412.916,5.734,2.135l-1.363,2.826c-1.301-1.181-2.438-1.892-4.289-1.892-1.953,0-3.619,1.648-3.619,4.312,0,2.623,1.686,4.35,3.598,4.35,1.871,0,3.09-.955,4.371-2.135l1.445,2.644c-1.019,1.057-2.787,2.461-5.816,2.461Z"/>
    <path class="st0" d="M340.348,595.487c-3.516,0-7.117-2.523-7.117-7.502,0-5.146,3.601-7.543,7.117-7.543,3.537,0,7.117,2.662,7.117,7.602,0,4.982-3.598,7.443-7.117,7.443ZM340.348,583.532c-2.705,0-4.106,1.992-4.106,4.512,0,2.379,1.401,4.353,4.106,4.353s4.106-1.912,4.106-4.353c0-2.479-1.422-4.512-4.106-4.512Z"/>
    <path class="st0" d="M358.789,595.302c-3.965,0-6.383-2.867-6.362-7.317,0-2.338.021-4.799.021-7.138h3.111v6.791c0,3.193,1.322,4.494,3.231,4.494,1.73,0,3.09-1.627,3.09-4.576v-6.709h3.131v6.953c0,4.617-2.379,7.502-6.221,7.502Z"/>
    <path class="st0" d="M374.465,589.733h-1.016v5.367h-3.131l-.021-14.252h6.75c2.826,0,4.309,1.707,4.309,4.309,0,2.115-1.645,3.783-3.475,4.312l3.781,4.92v.711h-3.029l-4.168-5.367ZM376.56,583.776h-3.111v2.908c1.057,0,2.946.021,2.946.021,1.363,0,1.892-.755,1.892-1.507,0-.731-.367-1.422-1.727-1.422Z"/>
    <path class="st0" d="M393.391,595.099h-3.211v-11.324h-4.617v-2.928h12.425v2.928h-4.597v11.324Z"/>
    <path class="st0" d="M419.313,595.099h-3.211v-11.324h-4.617v-2.928h12.425v2.928h-4.597v11.324Z"/>
    <path class="st0" d="M434.867,595.487c-3.516,0-7.117-2.523-7.117-7.502,0-5.146,3.601-7.543,7.117-7.543,3.537,0,7.117,2.662,7.117,7.602,0,4.982-3.598,7.443-7.117,7.443ZM434.867,583.532c-2.705,0-4.106,1.992-4.106,4.512,0,2.379,1.401,4.353,4.106,4.353s4.106-1.912,4.106-4.353c0-2.479-1.422-4.512-4.106-4.512Z"/>
    <path class="st0" d="M463.635,595.099h-3.211v-11.324h-4.617v-2.928h12.425v2.928h-4.597v11.324Z"/>
    <path class="st0" d="M481.059,589.712h-5.023v5.387h-3.19v-14.252h3.211v5.795h5.002v-5.795h3.193v14.252h-3.193v-5.387Z"/>
    <path class="st0" d="M489.763,580.847h9.981v2.928h-6.812c0,.934-.018,1.871-.018,2.826h5.772v2.846h-5.754v2.705h7.035v2.946h-10.225l.021-14.252Z"/>
    <path class="st0" d="M520.033,595.284c-2.033,0-3.334-.57-5.428-2.035l.975-2.764c1.994,1.178,3.254,1.789,4.25,1.789,1.404,0,3.07-.508,3.07-1.648,0-1.24-2.115-1.381-3.008-1.483-2.318-.285-5.349-.814-5.349-4.148,0-3.76,3.539-4.515,5.593-4.515,1.892,0,3.598.611,5.449,1.933l-.934,2.582c-1.586-1.037-3.111-1.525-4.515-1.525-2.176,0-2.685.875-2.685,1.404,0,1.016,2.338,1.24,2.97,1.24,2.135.223,5.428.629,5.428,4.512,0,3.783-3.598,4.658-5.816,4.658Z"/>
    <path class="st0" d="M537.619,595.099h-3.211v-11.324h-4.617v-2.928h12.425v2.928h-4.597v11.324Z"/>
    <path class="st0" d="M550.998,589.733h-1.016v5.367h-3.131l-.021-14.252h6.75c2.826,0,4.309,1.707,4.309,4.309,0,2.115-1.645,3.783-3.475,4.312l3.781,4.92v.711h-3.029l-4.168-5.367ZM553.092,583.776h-3.111v2.908c1.057,0,2.946.021,2.946.021,1.363,0,1.892-.755,1.892-1.507,0-.731-.367-1.422-1.727-1.422Z"/>
    <path class="st0" d="M563.359,580.847h9.981v2.928h-6.812c0,.934-.018,1.871-.018,2.826h5.772v2.846h-5.754v2.705h7.035v2.946h-10.225l.021-14.252Z"/>
    <path class="st0" d="M579.035,580.847h9.981v2.928h-6.812c0,.934-.018,1.871-.018,2.826h5.772v2.846h-5.754v2.705h7.035v2.946h-10.225l.021-14.252Z"/>
    <path class="st0" d="M601.824,595.099h-3.211v-11.324h-4.617v-2.928h12.425v2.928h-4.597v11.324Z"/>
    <path class="st0" d="M616.076,595.284c-2.033,0-3.334-.57-5.428-2.035l.975-2.764c1.994,1.178,3.254,1.789,4.25,1.789,1.404,0,3.07-.508,3.07-1.648,0-1.24-2.115-1.381-3.008-1.483-2.318-.285-5.349-.814-5.349-4.148,0-3.76,3.539-4.515,5.593-4.515,1.892,0,3.598.611,5.449,1.933l-.934,2.582c-1.586-1.037-3.111-1.525-4.515-1.525-2.176,0-2.685.875-2.685,1.404,0,1.016,2.338,1.24,2.97,1.24,2.135.223,5.428.629,5.428,4.512,0,3.783-3.598,4.658-5.816,4.658Z"/>
  </g>
  <g>
    <path class="st0" d="M420.66,546.266s-7.957-4.527-11.735-6.677l12.591-12.634s.823-.826.823-.826c-.012-.184-.019-1.497-.05-1.632-.616-6.339-4.528-12.189-11.109-13.294-3.331-.607-6.906,0-10.007.967,0,0-1.375.326-1.375.326v20.21l-1.125,1.125c-.299.004-.605.008-.605.008,0,0,0,.003,0,.004-.014,0-.356.006-.712.012l-1.101-1.101c.002-2.991-.008-13.478-.001-13.857-.535-.083-1.764-.297-2.285-.381-8.046-1.173-16.213,1.695-19.67,9.545,0,0-.844,2.42-.844,2.421l1.938,1.103s7.957,4.527,11.735,6.677c-2.495,2.503-12.591,12.634-12.591,12.634,0,0-.823.826-.823.826.012.184.019,1.497.05,1.632.616,6.339,4.528,12.189,11.109,13.294,3.331.607,6.906,0,10.007-.967,0,0,1.375-.326,1.375-.326v-20.21l1.125-1.125.605-.008s0-.003,0-.004c.014,0,.356-.006.712-.012l1.101,1.101c-.002,2.991.008,13.478.001,13.857.535.083,1.764.297,2.285.381,8.046,1.173,16.213-1.695,19.67-9.545,0,0,.844-2.42.844-2.421l-1.938-1.103ZM406.653,555.639c-1.064.122-2.147.165-3.224.116v-12.161c-.72-.72-2.533-2.533-3.253-3.253-.506.007-1.736.03-2.264.037v.004c-.498.007-1.582.022-2.055.029-.709.709-2.522,2.522-3.23,3.23v18.825c-1.403.278-2.807.441-4.173.417-5.78.01-9.036-3.795-9.575-9.23l12.583-14.609,1.34-1.556c-.328-.218-9.907-6.605-13.49-8.994,2-3.748,5.801-5.825,10.093-6.283,1.064-.122,2.147-.165,3.224-.116v12.161c.72.72,2.533,2.533,3.253,3.253.506-.007,1.736-.03,2.264-.037v-.004c.498-.007,1.582-.022,2.055-.029.709-.709,2.522-2.522,3.23-3.23v-18.825c1.403-.278,2.807-.441,4.173-.417,5.78-.01,9.036,3.795,9.575,9.23l-12.583,14.609-1.34,1.556c.328.218,9.907,6.605,13.49,8.994-2,3.748-5.801,5.825-10.093,6.283Z"/>
    <path class="st0" d="M199.994,553.822h-15.943l-2.373,4.918h-11.816l18.09-39.742h9.892l17.301,39.742h-13.117l-2.035-4.918ZM188.122,543.646h7.858l-3.957-9.499-3.901,9.499Z"/>
    <path class="st0" d="M221.018,519.111h11.984v28.266h14.481v11.363h-26.41l-.055-39.629Z"/>
    <path class="st0" d="M252.2,519.111h11.984v28.266h20.917v11.363h-32.846l-.055-39.629Z"/>
    <path class="st0" d="M291.487,519.111h31.207v9.554h-19.278c0,3.844-.055,4.578-.055,5.878h16.224v9.045h-16.169v5.54h19.844v9.611h-31.829l.055-39.629Z"/>
    <path class="st0" d="M342.422,544.719h-.96v14.021h-11.816l-.055-39.629h20.972c9.103,0,13.851,4.918,13.851,12.436,0,5.71-4.069,10.12-9.441,11.986l12.155,13.51-.734,1.696h-11.929l-12.042-14.021ZM348.47,528.325h-7.009v6.447h6.728c2.714-.057,4.127-1.754,4.127-3.167,0-1.358-1.017-3.28-3.846-3.28Z"/>
    <path class="st0" d="M450.128,559.645c-11.927,0-21.2-7.066-21.2-20.861,0-12.832,8.256-20.747,20.578-20.747,7.915,0,14.53,3.165,17.865,6.953l-4.014,9.215c-4.465-3.731-8.762-4.976-13.172-4.976-4.861,0-9.103,2.601-9.103,9.103,0,6.387,4.242,9.158,9.045,9.158,4.918,0,9.441-.962,13.229-4.861l3.957,9.496c-3.052,3.448-8.254,7.519-17.186,7.519Z"/>
    <path class="st0" d="M498.011,545.115h-12.325v13.625h-11.984v-39.629h12.042v14.698h12.267v-14.698h12.042v39.629h-12.042v-13.625Z"/>
    <path class="st0" d="M546.516,553.822h-15.943l-2.373,4.918h-11.816l18.09-39.742h9.892l17.301,39.742h-13.117l-2.035-4.918ZM534.644,543.646h7.858l-3.957-9.499-3.901,9.499Z"/>
    <path class="st0" d="M579.701,539.575c0,2.658-.057,4.635-.057,19.165h-11.646v-39.629h7.519l19.052,18.09.055-18.09h11.476v39.629h-6.387l-20.012-19.165Z"/>
    <path class="st0" d="M640.753,529.57c-1.752-.621-4.523-1.245-7.404-1.245-5.655,0-9.611,4.014-9.611,10.177,0,6.5,4.297,10.627,9.611,10.627,3.052,0,6.217-1.017,8.535-2.543,0-.396.057-1.075.057-2.205h-10.005v-8.592h20.859v16.167c-1.639,1.583-4.297,3.563-7.406,4.976-2.939,1.471-7.123,2.656-12.04,2.656-11.308,0-20.919-7.121-20.919-20.859,0-13.908,11.308-20.691,21.032-20.691,1.809,0,5.878.17,9.496,1.3,3.676,1.356,8.707,4.748,10.29,6.502l-4.918,7.687c-2.15-2.205-6.219-3.335-7.577-3.957Z"/>
    <path class="st0" d="M659.634,519.111h31.207v9.554h-19.278c0,3.844-.055,4.578-.055,5.878h16.224v9.045h-16.169v5.54h19.844v9.611h-31.829l.055-39.629Z"/>
    <path class="st0" d="M162.5,538.389c2.375-1.415,4.465-4.129,4.465-7.464,0-6.67-4.295-11.814-13.002-11.814h-11.791c2.377,2.454,3.901,5.667,4.351,9.441h6.761c2.714,0,3.167,1.694,3.167,3.165,0,1.358-.849,3.109-3.618,3.109h-6.755c-.399,1.288-.988,2.519-1.748,3.652.969,1.445,1.701,3.042,2.184,4.659h6.658c2.658,0,3.054,1.809,3.054,3.278,0,1.3-.624,2.997-3.505,2.997h-5.775c-.5,3.674-2.097,6.87-4.519,9.328h12.158c7.236,0,12.834-4.41,12.834-11.816,0-3.165-2.318-6.953-4.918-8.534Z"/>
    <path class="st0" d="M129.339,558.74h-20.747v-39.629h20.125c8.707,0,13.002,5.144,13.002,11.814,0,3.335-2.09,6.049-4.465,7.464,2.601,1.581,4.918,5.37,4.918,8.535,0,7.406-5.597,11.816-12.834,11.816ZM128.039,528.552h-8.592v6.274h8.141c2.769,0,3.618-1.752,3.618-3.109,0-1.471-.453-3.165-3.167-3.165ZM127.926,543.137h-8.479v6.274h8.028c2.882,0,3.505-1.696,3.505-2.997,0-1.469-.396-3.278-3.054-3.278Z"/>
  </g>
</svg>