<?xml version="1.0" encoding="UTF-8"?>
<svg id="Layer_1" xmlns="http://www.w3.org/2000/svg" version="1.1" viewBox="0 0 800 800">
  <!-- Generator: Adobe Illustrator 29.4.0, SVG Export Plug-In . SVG Version: 2.1.0 Build 152)  -->
  <defs>
    <style>
      .st0 {
        fill: #fff;
      }
    </style>
  </defs>
  <path class="st0" d="M565.849,453.792s-58.305-33.172-85.994-48.926l92.265-92.583s6.033-6.053,6.033-6.054c-.089-1.345-.138-10.971-.364-11.961-4.512-46.453-33.179-89.321-81.404-97.414-24.411-4.449-50.604-.007-73.327,7.085-.001,0-10.073,2.387-10.075,2.388v148.096c-3.042,3.042-5.243,5.243-8.245,8.245-2.194.03-4.432.061-4.432.061,0,0,0,.023,0,.033-.101.002-2.609.043-5.214.085-3.024-3.024-5.087-5.087-8.069-8.069.012-21.92-.061-98.767-.009-101.54-3.918-.61-12.927-2.18-16.742-2.789-58.957-8.593-118.808,12.419-144.14,69.942,0,.002-6.182,17.736-6.183,17.739l14.2,8.079s58.305,33.172,85.994,48.926c-18.282,18.345-92.265,92.583-92.265,92.583,0,0-6.033,6.053-6.033,6.054.089,1.345.138,10.971.363,11.961,4.512,46.453,33.179,89.321,81.404,97.414,24.411,4.449,50.604.006,73.327-7.085.001,0,10.073-2.387,10.075-2.388v-148.096l8.244-8.245,4.432-.061s0-.023,0-.033c.101-.002,2.609-.043,5.214-.085l8.069,8.069c-.012,21.92.061,98.767.009,101.54,3.918.61,12.927,2.18,16.742,2.788,58.957,8.594,118.808-12.419,144.14-69.942,0-.002,6.182-17.736,6.183-17.739l-14.2-8.079ZM463.204,522.476c-7.797.891-15.736,1.21-23.622.851v-89.112c-5.28-5.279-18.563-18.564-23.839-23.839-3.705.052-12.723.219-16.591.27v.032c-3.648.051-11.589.16-15.061.209-5.193,5.193-18.481,18.481-23.672,23.672v137.948c-10.281,2.037-20.567,3.229-30.577,3.054-42.356.076-66.214-27.811-70.168-67.635l92.203-107.055,9.818-11.399c-2.406-1.598-72.598-48.404-98.856-65.907,14.654-27.465,42.512-42.685,73.957-46.042,7.797-.891,15.736-1.21,23.622-.851v89.112c5.28,5.279,18.563,18.564,23.839,23.839,3.705-.052,12.723-.219,16.591-.27v-.032c3.648-.051,11.589-.16,15.061-.209,5.194-5.193,18.481-18.481,23.673-23.672v-137.948c10.281-2.037,20.567-3.229,30.577-3.054,42.356-.076,66.214,27.811,70.168,67.635l-92.203,107.055-9.818,11.399c2.406,1.598,72.598,48.404,98.856,65.907-14.654,27.465-42.512,42.685-73.957,46.042Z"/>
</svg>