<?xml version="1.0" encoding="UTF-8"?>
<svg id="Layer_1" xmlns="http://www.w3.org/2000/svg" version="1.1" viewBox="0 0 800 800">
  <!-- Generator: Adobe Illustrator 29.4.0, SVG Export Plug-In . SVG Version: 2.1.0 Build 152)  -->
  <defs>
    <style>
      .st0 {
        fill: #fff;
      }
    </style>
  </defs>
  <path class="st0" d="M424.134,379.383s-8.484-4.827-12.513-7.119l13.426-13.472s.878-.881.878-.881c-.013-.196-.02-1.596-.053-1.74-.657-6.76-4.828-12.998-11.846-14.175-3.552-.647-7.364,0-10.67,1.031,0,0-1.466.347-1.466.347v21.55c-.443.443-.763.763-1.2,1.2-.319.004-.645.009-.645.009,0,0,0,.003,0,.005-.015,0-.38.006-.759.012l-1.174-1.174c.002-3.19-.009-14.372-.001-14.776-.57-.089-1.881-.317-2.436-.406-8.579-1.25-17.288,1.807-20.975,10.178,0,0-.9,2.581-.9,2.581l2.066,1.176s8.484,4.827,12.513,7.119c-2.66,2.669-13.426,13.472-13.426,13.472,0,0-.878.881-.878.881.013.196.02,1.596.053,1.74.657,6.76,4.828,12.998,11.846,14.175,3.552.647,7.364,0,10.67-1.031,0,0,1.466-.347,1.466-.347v-21.55l1.2-1.2.645-.009s0-.003,0-.005c.015,0,.38-.006.759-.012l1.174,1.174c-.002,3.19.009,14.372.001,14.776.57.089,1.881.317,2.436.406,8.579,1.25,17.288-1.807,20.975-10.178,0,0,.9-2.581.9-2.581l-2.066-1.176ZM409.197,389.378c-1.135.13-2.29.176-3.437.124v-12.967c-.768-.768-2.701-2.701-3.469-3.469-.539.008-1.851.032-2.414.039v.005c-.531.007-1.686.023-2.192.03-.756.756-2.689,2.689-3.445,3.445v20.074c-1.496.296-2.993.47-4.449.444-6.163.011-9.635-4.047-10.211-9.842l13.417-15.578,1.429-1.659c-.35-.233-10.564-7.044-14.385-9.591,2.132-3.997,6.186-6.211,10.762-6.7,1.135-.13,2.29-.176,3.437-.124v12.967c.768.768,2.701,2.701,3.469,3.469.539-.008,1.851-.032,2.414-.039v-.005c.531-.007,1.686-.023,2.192-.03.756-.756,2.689-2.689,3.445-3.445v-20.074c1.496-.296,2.993-.47,4.449-.444,6.163-.011,9.635,4.047,10.211,9.842l-13.417,15.578-1.429,1.659c.35.233,10.564,7.044,14.385,9.59-2.132,3.997-6.186,6.211-10.762,6.7Z"/>
  <path class="st0" d="M407.987,167.831h-17l-2.53,5.245h-12.6l19.29-42.377h10.548l18.448,42.377h-13.987l-2.17-5.245ZM395.328,156.981h8.379l-4.219-10.128-4.16,10.128Z"/>
  <g>
    <path class="st0" d="M365.833,183.548h12.779v30.141h15.442v12.117h-28.162l-.059-42.257Z"/>
    <path class="st0" d="M399.083,183.548h12.779v30.141h22.304v12.117h-35.024l-.059-42.257Z"/>
  </g>
  <path class="st0" d="M383.089,236.277h33.277v10.188h-20.557c0,4.099-.059,4.882-.059,6.268h17.3v9.645h-17.241v5.907h21.16v10.249h-33.94l.059-42.257Z"/>
  <path class="st0" d="M393.669,316.312h-1.024v14.951h-12.6l-.059-42.257h22.363c9.706,0,14.77,5.245,14.77,13.26,0,6.089-4.339,10.791-10.067,12.781l12.961,14.406-.783,1.809h-12.72l-12.841-14.951ZM400.119,298.83h-7.473v6.874h7.174c2.894-.061,4.4-1.87,4.4-3.377,0-1.448-1.085-3.497-4.101-3.497Z"/>
  <path class="st0" d="M402.109,456.216c-12.718,0-22.606-7.535-22.606-22.245,0-13.683,8.803-22.123,21.943-22.123,8.44,0,15.493,3.375,19.05,7.414l-4.28,9.827c-4.761-3.978-9.343-5.306-14.046-5.306-5.183,0-9.706,2.773-9.706,9.706,0,6.811,4.523,9.765,9.645,9.765,5.245,0,10.067-1.026,14.107-5.183l4.219,10.126c-3.254,3.677-8.801,8.018-18.326,8.018Z"/>
  <path class="st0" d="M406.541,494.416h-13.142v14.529h-12.779v-42.257h12.841v15.673h13.081v-15.673h12.841v42.257h-12.841v-14.529Z"/>
  <path class="st0" d="M407.987,556.549h-17l-2.53,5.245h-12.6l19.29-42.377h10.548l18.448,42.377h-13.987l-2.17-5.245ZM395.328,545.699h8.379l-4.219-10.128-4.16,10.128Z"/>
  <path class="st0" d="M392.165,594.087c0,2.834-.061,4.943-.061,20.436h-12.418v-42.257h8.018l20.316,19.29.059-19.29h12.237v42.257h-6.811l-21.34-20.436Z"/>
  <path class="st0" d="M408.439,637.293c-1.868-.663-4.823-1.328-7.895-1.328-6.03,0-10.249,4.28-10.249,10.852,0,6.931,4.582,11.331,10.249,11.331,3.254,0,6.629-1.085,9.101-2.712,0-.422.061-1.146.061-2.351h-10.669v-9.162h22.243v17.239c-1.747,1.688-4.582,3.799-7.898,5.306-3.134,1.568-7.596,2.832-12.838,2.832-12.058,0-22.306-7.594-22.306-22.243,0-14.831,12.058-22.064,22.427-22.064,1.929,0,6.268.182,10.126,1.387,3.919,1.446,9.284,5.063,10.973,6.933l-5.245,8.197c-2.292-2.351-6.631-3.556-8.079-4.219Z"/>
  <path class="st0" d="M383.089,679.774h33.277v10.188h-20.557c0,4.099-.059,4.882-.059,6.268h17.3v9.645h-17.241v5.907h21.16v10.249h-33.94l.059-42.257Z"/>
  <g>
    <path class="st0" d="M426.119,98.526c2.533-1.509,4.761-4.403,4.761-7.959,0-7.112-4.58-12.598-13.864-12.598h-12.573c2.534,2.617,4.16,6.043,4.639,10.067h7.21c2.894,0,3.377,1.806,3.377,3.375,0,1.448-.905,3.316-3.858,3.316h-7.203c-.426,1.373-1.053,2.686-1.864,3.894,1.033,1.541,1.813,3.244,2.329,4.968h7.099c2.834,0,3.257,1.929,3.257,3.495,0,1.387-.665,3.195-3.738,3.195h-6.158c-.533,3.918-2.236,7.326-4.818,9.947h12.964c7.716,0,13.685-4.702,13.685-12.6,0-3.375-2.471-7.414-5.245-9.1Z"/>
    <path class="st0" d="M390.759,120.227h-22.123v-42.257h21.46c9.284,0,13.864,5.485,13.864,12.598,0,3.556-2.229,6.45-4.761,7.959,2.773,1.686,5.245,5.726,5.245,9.101,0,7.898-5.969,12.6-13.685,12.6ZM389.372,88.037h-9.162v6.69h8.681c2.953,0,3.858-1.868,3.858-3.316,0-1.568-.483-3.375-3.377-3.375ZM389.252,103.589h-9.042v6.69h8.56c3.073,0,3.738-1.809,3.738-3.195,0-1.566-.422-3.495-3.257-3.495Z"/>
  </g>
</svg>